<svg width="80" height="80" viewBox="0 0 40 40" fill="none" xmlns="http://www.w3.org/2000/svg">
<g clip-path="url(#clip0_796_281)">
<path d="M33.9306 28.5888C35.3225 27.7 36.25 26.1456 36.25 24.375C36.25 21.6181 34.0069 19.375 31.25 19.375C28.4931 19.375 26.25 21.6181 26.25 24.375C26.25 26.1456 27.1781 27.7013 28.5706 28.5894C27.4794 28.9731 26.4762 29.59 25.6294 30.4044C24.7969 29.6019 23.7938 28.9794 22.6806 28.5888C24.0725 27.7 25 26.1456 25 24.375C25 21.6181 22.7569 19.375 20 19.375C17.2431 19.375 15 21.6181 15 24.375C15 26.1456 15.9275 27.7 17.3194 28.5888C16.2063 28.9794 15.2031 29.6025 14.3706 30.4044C13.5238 29.59 12.52 28.9731 11.4294 28.5894C12.8219 27.7013 13.75 26.1456 13.75 24.375C13.75 21.6181 11.5069 19.375 8.75 19.375C5.99312 19.375 3.75 21.6181 3.75 24.375C3.75 26.1456 4.6775 27.7 6.06938 28.5888C2.90438 29.7 0.625 32.71 0.625 36.25V39.375H11.875H13.125H26.875H28.125H39.375V36.25C39.375 32.71 37.0956 29.7 33.9306 28.5888ZM27.5 24.375C27.5 22.3069 29.1819 20.625 31.25 20.625C33.3181 20.625 35 22.3069 35 24.375C35 26.4431 33.3181 28.125 31.25 28.125C29.1819 28.125 27.5 26.4431 27.5 24.375ZM16.25 24.375C16.25 22.3069 17.9319 20.625 20 20.625C22.0681 20.625 23.75 22.3069 23.75 24.375C23.75 26.4431 22.0681 28.125 20 28.125C17.9319 28.125 16.25 26.4431 16.25 24.375ZM21.875 30C21.875 31.0337 21.0338 31.875 20 31.875C18.9662 31.875 18.125 31.0337 18.125 30C18.125 29.875 18.14 29.7519 18.1637 29.6313C18.7494 29.4688 19.3631 29.375 20 29.375C20.6369 29.375 21.2506 29.4688 21.8363 29.6313C21.86 29.7525 21.875 29.875 21.875 30ZM5 24.375C5 22.3069 6.68188 20.625 8.75 20.625C10.8181 20.625 12.5 22.3069 12.5 24.375C12.5 26.4431 10.8181 28.125 8.75 28.125C6.68188 28.125 5 26.4431 5 24.375ZM11.875 36.25V38.125H1.875V36.25C1.875 32.4594 4.95937 29.375 8.75 29.375C10.5437 29.375 12.2588 30.09 13.5406 31.3412C12.5006 32.7069 11.875 34.405 11.875 36.25ZM26.875 38.125H25V33.75H23.75V38.125H16.25V33.75H15V38.125H13.125V36.25C13.125 33.58 14.6581 31.2656 16.8881 30.1275C16.9562 31.7906 18.3206 33.125 20 33.125C21.6794 33.125 23.0438 31.7906 23.1119 30.1275C25.3419 31.2656 26.875 33.58 26.875 36.25V38.125ZM38.125 38.125H28.125V36.25C28.125 34.405 27.4994 32.7069 26.4594 31.3412C27.7412 30.09 29.4562 29.375 31.25 29.375C35.0406 29.375 38.125 32.4594 38.125 36.25V38.125Z" fill="#6B6C7E"/>
<path d="M20 8.75C20 9.78375 20.8412 10.625 21.875 10.625C22.2194 10.625 22.5 10.9056 22.5 11.25V11.875H21.875C21.5306 11.875 21.25 11.5944 21.25 11.25H20C20 12.0638 20.5244 12.7512 21.25 13.01V14.375H22.5V13.125H23.75V11.25C23.75 10.2162 22.9088 9.375 21.875 9.375C21.5306 9.375 21.25 9.09437 21.25 8.75V8.125H21.875C22.2194 8.125 22.5 8.40563 22.5 8.75H23.75C23.75 7.93625 23.2256 7.24875 22.5 6.99V5.625H21.25V6.875H20V8.75Z" fill="#6B6C7E"/>
<path d="M5.625 14.375H9.8675L16.25 17.2119V14.375H17.5631C17.8538 15.7994 19.1156 16.875 20.625 16.875H23.125V19.7119L29.5075 16.875H34.375C36.0981 16.875 37.5 15.4731 37.5 13.75V6.25C37.5 4.52688 36.0981 3.125 34.375 3.125H22.4369C22.1462 1.70063 20.8838 0.625 19.375 0.625H5.625C3.90188 0.625 2.5 2.02688 2.5 3.75V11.25C2.5 12.9731 3.90188 14.375 5.625 14.375ZM34.375 4.375C35.4087 4.375 36.25 5.21625 36.25 6.25V13.75C36.25 14.7838 35.4087 15.625 34.375 15.625H29.2425L24.375 17.7881V15.625H20.625C19.5912 15.625 18.75 14.7838 18.75 13.75V6.25C18.75 5.21625 19.5912 4.375 20.625 4.375H34.375ZM3.75 3.75C3.75 2.71625 4.59125 1.875 5.625 1.875H19.375C20.1887 1.875 20.8763 2.39938 21.135 3.125H20.625C18.9019 3.125 17.5 4.52688 17.5 6.25V13.125H15V15.2881L10.1325 13.125H5.625C4.59125 13.125 3.75 12.2838 3.75 11.25V3.75Z" fill="#6B6C7E"/>
<path d="M25 5.625H26.25V6.875H25V5.625Z" fill="#6B6C7E"/>
<path d="M27.5 5.625H35V6.875H27.5V5.625Z" fill="#6B6C7E"/>
<path d="M25 8.125H35V9.375H25V8.125Z" fill="#6B6C7E"/>
<path d="M25 10.625H35V11.875H25V10.625Z" fill="#6B6C7E"/>
<path d="M25 13.125H30V14.375H25V13.125Z" fill="#6B6C7E"/>
<path d="M31.25 13.125H32.5V14.375H31.25V13.125Z" fill="#6B6C7E"/>
<path d="M33.75 13.125H35V14.375H33.75V13.125Z" fill="#6B6C7E"/>
<path d="M6.875 9.375C6.53062 9.375 6.25 9.09438 6.25 8.75H5C5 9.56375 5.52437 10.2512 6.25 10.51V11.875H7.5V10.625H8.75V8.75C8.75 7.71625 7.90875 6.875 6.875 6.875C6.53062 6.875 6.25 6.59437 6.25 6.25V5.625H6.875C7.21937 5.625 7.5 5.90563 7.5 6.25H8.75C8.75 5.43625 8.22563 4.74875 7.5 4.49V3.125H6.25V4.375H5V6.25C5 7.28375 5.84125 8.125 6.875 8.125C7.21937 8.125 7.5 8.40562 7.5 8.75V9.375H6.875Z" fill="#6B6C7E"/>
<path d="M10 3.125H11.25V4.375H10V3.125Z" fill="#6B6C7E"/>
<path d="M12.5 3.125H16.25V4.375H12.5V3.125Z" fill="#6B6C7E"/>
<path d="M10 5.625H16.25V6.875H10V5.625Z" fill="#6B6C7E"/>
<path d="M10 8.125H16.25V9.375H10V8.125Z" fill="#6B6C7E"/>
<path d="M10 10.625H16.25V11.875H10V10.625Z" fill="#6B6C7E"/>
</g>
<defs>
<clipPath id="clip0_796_281">
<rect width="40" height="40" fill="white"/>
</clipPath>
</defs>
</svg>
