<svg width="80" height="80" viewBox="0 0 40 40" fill="none" xmlns="http://www.w3.org/2000/svg">
<g clip-path="url(#clip0_796_263)">
<path d="M25.625 20C25.625 16.2094 22.5406 13.125 18.75 13.125C14.9594 13.125 11.875 16.2094 11.875 20C11.875 23.7906 14.9594 26.875 18.75 26.875C22.5406 26.875 25.625 23.7906 25.625 20ZM13.125 20C13.125 16.8981 15.6488 14.375 18.75 14.375C21.8512 14.375 24.375 16.8981 24.375 20C24.375 23.1019 21.8512 25.625 18.75 25.625C15.6488 25.625 13.125 23.1019 13.125 20Z" fill="#6B6C7E"/>
<path d="M19.375 24.375V23.125H20.625V21.25C20.625 20.2162 19.7838 19.375 18.75 19.375C18.4056 19.375 18.125 19.095 18.125 18.75V18.125H18.75C19.0944 18.125 19.375 18.405 19.375 18.75H20.625C20.625 17.9362 20.1006 17.2487 19.375 16.99V15.625H18.125V16.875H16.875V18.75C16.875 19.7838 17.7162 20.625 18.75 20.625C19.0944 20.625 19.375 20.905 19.375 21.25V21.875H18.75C18.4056 21.875 18.125 21.595 18.125 21.25H16.875C16.875 22.0638 17.3994 22.7513 18.125 23.01V24.375H19.375Z" fill="#6B6C7E"/>
<path d="M21.875 19.375H23.125V20.625H21.875V19.375Z" fill="#6B6C7E"/>
<path d="M14.375 19.375H15.625V20.625H14.375V19.375Z" fill="#6B6C7E"/>
<path d="M7.5 14.375C11.2906 14.375 14.375 11.2906 14.375 7.5C14.375 3.70937 11.2906 0.625 7.5 0.625C3.70937 0.625 0.625 3.70937 0.625 7.5C0.625 11.2906 3.70937 14.375 7.5 14.375ZM7.5 1.875C10.6012 1.875 13.125 4.39813 13.125 7.5C13.125 10.6019 10.6012 13.125 7.5 13.125C4.39875 13.125 1.875 10.6019 1.875 7.5C1.875 4.39813 4.39875 1.875 7.5 1.875Z" fill="#6B6C7E"/>
<path d="M7.5 9.375C7.15562 9.375 6.875 9.095 6.875 8.75H5.625C5.625 9.56375 6.14937 10.2512 6.875 10.51V11.875H8.125V10.625H9.375V8.75C9.375 7.71625 8.53375 6.875 7.5 6.875C7.15562 6.875 6.875 6.595 6.875 6.25V5.625H7.5C7.84437 5.625 8.125 5.905 8.125 6.25H9.375C9.375 5.43625 8.85063 4.74875 8.125 4.49V3.125H6.875V4.375H5.625V6.25C5.625 7.28375 6.46625 8.125 7.5 8.125C7.84437 8.125 8.125 8.405 8.125 8.75V9.375H7.5Z" fill="#6B6C7E"/>
<path d="M10.625 6.875H11.875V8.125H10.625V6.875Z" fill="#6B6C7E"/>
<path d="M3.125 6.875H4.375V8.125H3.125V6.875Z" fill="#6B6C7E"/>
<path d="M25.625 35.625H30.625V36.875H25.625V35.625Z" fill="#6B6C7E"/>
<path d="M36.25 0.625H20C18.2769 0.625 16.875 2.02688 16.875 3.75V10.8138C12.6012 11.685 9.375 15.4725 9.375 20C9.375 21.88 9.93625 23.6288 10.8931 25.0981L9.6875 26.3037L8.75 25.3662L1.585 32.5312C0.965625 33.15 0.625 33.9725 0.625 34.8488C0.625 36.655 2.095 38.125 3.90188 38.125C4.77625 38.125 5.59937 37.7844 6.21875 37.1656L13.3837 30L12.4462 29.0625L13.6519 27.8569C14.6194 28.4869 15.7063 28.9481 16.875 29.1863V36.25C16.875 37.9731 18.2769 39.375 20 39.375H36.25C37.9731 39.375 39.375 37.9731 39.375 36.25V3.75C39.375 2.02688 37.9731 0.625 36.25 0.625ZM24.375 1.875H31.875V2.5C31.875 2.845 31.5944 3.125 31.25 3.125H25C24.6556 3.125 24.375 2.845 24.375 2.5V1.875ZM5.335 36.2812C4.95188 36.6644 4.4425 36.875 3.90188 36.875C2.78437 36.875 1.875 35.9663 1.875 34.8488C1.875 34.3069 2.08563 33.7981 2.46875 33.4156L8.75 27.1338L11.6163 30L5.335 36.2812ZM11.5625 28.1787L10.5712 27.1875L11.6519 26.1069C11.9575 26.4613 12.2887 26.7925 12.6431 27.0981L11.5625 28.1787ZM10.625 20C10.625 15.52 14.27 11.875 18.75 11.875C23.23 11.875 26.875 15.52 26.875 20C26.875 24.48 23.23 28.125 18.75 28.125C14.27 28.125 10.625 24.48 10.625 20ZM34.375 29.375V20.625H28.0931C28.1069 20.4175 28.125 20.2113 28.125 20C28.125 15.4725 24.8988 11.685 20.625 10.8138V6.875H35.625V30.625H20.625V29.1863C21.0544 29.0988 21.4688 28.9725 21.875 28.8281V29.375H34.375ZM23.4069 28.125C25.7013 26.805 27.3912 24.5481 27.9356 21.875H33.125V28.125H23.4069ZM38.125 36.25C38.125 37.2837 37.2837 38.125 36.25 38.125H20C18.9662 38.125 18.125 37.2837 18.125 36.25V34.375H38.125V36.25ZM38.125 33.125H18.125V29.3431C18.3325 29.3569 18.5387 29.375 18.75 29.375C18.9613 29.375 19.1675 29.3569 19.375 29.3431V30.625C19.375 31.3144 19.9356 31.875 20.625 31.875H35.625C36.3144 31.875 36.875 31.3144 36.875 30.625V6.875C36.875 6.18563 36.3144 5.625 35.625 5.625H20.625C19.9356 5.625 19.375 6.18563 19.375 6.875V10.6569C19.1675 10.6431 18.9613 10.625 18.75 10.625C18.5387 10.625 18.3325 10.6431 18.125 10.6569V3.75C18.125 2.71625 18.9662 1.875 20 1.875H23.125V2.5C23.125 3.53375 23.9662 4.375 25 4.375H31.25C32.2838 4.375 33.125 3.53375 33.125 2.5V1.875H36.25C37.2837 1.875 38.125 2.71625 38.125 3.75V33.125Z" fill="#6B6C7E"/>
<path d="M21.875 8.125H23.125V9.375H21.875V8.125Z" fill="#6B6C7E"/>
<path d="M24.375 8.125H25.625V9.375H24.375V8.125Z" fill="#6B6C7E"/>
<path d="M26.875 8.125H34.375V9.375H26.875V8.125Z" fill="#6B6C7E"/>
<path d="M26.875 10.625H34.375V11.875H26.875V10.625Z" fill="#6B6C7E"/>
<path d="M29.375 13.125H34.375V14.375H29.375V13.125Z" fill="#6B6C7E"/>
<path d="M29.375 15.625H34.375V16.875H29.375V15.625Z" fill="#6B6C7E"/>
<path d="M29.375 18.125H34.375V19.375H29.375V18.125Z" fill="#6B6C7E"/>
</g>
<defs>
<clipPath id="clip0_796_263">
<rect width="40" height="40" fill="white"/>
</clipPath>
</defs>
</svg>
