<svg xmlns="http://www.w3.org/2000/svg" xmlns:xlink="http://www.w3.org/1999/xlink" viewBox="0 0 100 125" version="1.1" x="0px" y="0px"><title>magn_gls-10 copy 2</title><desc>Created with Sketch.</desc><g stroke="none" stroke-width="1" fill="none" fill-rule="evenodd"><path d="M82.1246465,71.0303464 L82.1276412,9.18161248 L40.4602536,9.36628623 L40.4602536,14.9394403 L76.3698133,14.9394403 L76.3698133,71.0303464 L82.1246465,71.0303464 Z M72.1852061,80.9697867 L72.1882008,19.1210528 L30.5208132,19.3057265 L30.5208132,24.8788806 L66.430373,24.8788806 L66.430373,80.9697867 L72.1852061,80.9697867 Z M58.4704356,57.83965 C58.4704356,47.7574618 50.2968755,39.5839018 40.2156856,39.5839018 C30.1334975,39.5839018 21.9609357,47.7574618 21.9609357,57.83965 C21.9609357,67.9208398 30.1334975,76.0943999 40.2156856,76.0943999 C50.2968755,76.0943999 58.4704356,67.9208398 58.4704356,57.83965 L58.4704356,57.83965 Z M86.3092537,5 L86.3092537,75.3966326 L76.3698133,75.3966326 L76.3698133,85.3360729 L66.430373,85.3360729 L66.430373,88.1011879 L59.5315609,95 L54.6791335,90.1485709 L49.7588261,94.9880212 L44.9603035,90.1894986 L40.0799255,94.9880212 L35.2824011,90.1894986 L30.4020231,94.9880212 L25.5745516,90.1605497 L20.7360996,95 L14,88.2648987 L14,24.8788806 L26.1535288,24.8788806 L26.1535288,14.9394403 L36.0939673,14.9394403 L36.0939673,5 L86.3092537,5 Z M46.4586564,59.0055901 C47.8262403,61.6589026 47.2662297,65.6019366 44.7576615,67.4896017 C43.9730476,68.0795594 43.0297142,68.4509034 42.045453,68.6465577 L42.3738728,71.1880677 L37.9357136,71.1880677 L38.2741157,68.5696935 C37.3347752,68.3361062 36.451336,67.9308222 35.7166339,67.3298839 C34.3081223,66.1799155 33.5784115,64.4629488 33.2450005,62.7120421 L36.6230326,61.9493894 C36.9145177,63.7621868 38.2611387,65.1936579 40.2566133,65.1936579 C41.3816258,65.1936579 42.2291285,64.9081622 42.8001198,64.3361728 C43.5288324,63.6054637 43.911157,62.5014142 43.5178518,61.5331248 C43.0017636,60.2643663 41.4265464,59.896017 40.2007121,59.532659 C38.8171564,59.123382 37.3786976,58.7580275 36.189798,57.9374771 C32.6450604,55.4917978 32.8936213,49.5772469 36.9983695,47.7874089 C37.4176289,47.6037334 37.8598476,47.4809503 38.3100522,47.3861179 L37.9357136,44.4902339 L42.3738728,44.4902339 L41.9935447,47.4360297 C42.7312415,47.6067281 43.4439823,47.8682661 44.0748677,48.2675606 C45.4095099,49.1110704 46.1322331,50.4596879 46.4496722,51.9031378 L42.9059329,52.604898 C42.7352344,52.1017868 42.4647123,51.6326157 42.0434566,51.2942136 C41.5503278,50.8999102 40.8964829,50.7182311 40.2516221,50.6982664 C39.098659,50.6603334 37.5923202,50.9598043 37.152098,52.1217516 C36.9085283,52.7646158 37.0732373,53.5112967 37.5643696,54.0074202 C38.0055901,54.4526337 39.0756996,54.9148172 40.7756963,55.3969654 C42.4746947,55.8791136 43.7324726,56.3782318 44.5470336,56.8933218 C45.3615945,57.4084118 45.9984694,58.1121685 46.4586564,59.0055901 L46.4586564,59.0055901 Z" fill="#000000"/></g><text x="0" y="115" fill="#000000" font-size="10px" font-weight="bold" font-family="'Helvetica Neue', Helvetica, Arial-Unicode, Arial, Sans-serif"></text></svg>