<svg width="80" height="80" viewBox="0 0 40 40" fill="none" xmlns="http://www.w3.org/2000/svg">
<g clip-path="url(#clip0_796_227)">
<path d="M25.625 21.875C21.4894 21.875 18.125 25.2394 18.125 29.375C18.125 33.5106 21.4894 36.875 25.625 36.875C29.7606 36.875 33.125 33.5106 33.125 29.375C33.125 25.2394 29.7606 21.875 25.625 21.875ZM25.625 35.625C22.1788 35.625 19.375 32.8212 19.375 29.375C19.375 25.9288 22.1788 23.125 25.625 23.125C29.0712 23.125 31.875 25.9288 31.875 29.375C31.875 32.8212 29.0712 35.625 25.625 35.625Z" fill="#6B6C7E"/>
<path d="M25.625 33.125V34.375C26.1156 34.375 26.6012 34.3037 27.0681 34.1637L26.7081 32.9669C26.3581 33.0719 25.9938 33.125 25.625 33.125Z" fill="#6B6C7E"/>
<path d="M25.625 24.375V25.625C27.6931 25.625 29.375 27.3069 29.375 29.375C29.375 30.6369 28.7462 31.8063 27.6931 32.5044L28.3831 33.5463C29.7869 32.6163 30.625 31.0569 30.625 29.375C30.625 26.6181 28.3819 24.375 25.625 24.375Z" fill="#6B6C7E"/>
<path d="M22.5 13.125C22.5 11.105 21.2937 9.365 19.5656 8.57687C20.21 8.00375 20.625 7.17812 20.625 6.25C20.625 4.52688 19.2231 3.125 17.5 3.125C15.7769 3.125 14.375 4.52688 14.375 6.25C14.375 7.17812 14.79 8.00375 15.4344 8.57687C13.7062 9.365 12.5 11.105 12.5 13.125V14.375H22.5V13.125ZM15.625 6.25C15.625 5.21625 16.4662 4.375 17.5 4.375C18.5338 4.375 19.375 5.21625 19.375 6.25C19.375 7.28375 18.5338 8.125 17.5 8.125C16.4662 8.125 15.625 7.28375 15.625 6.25ZM13.75 13.125C13.75 11.0569 15.4319 9.375 17.5 9.375C19.5681 9.375 21.25 11.0569 21.25 13.125H13.75Z" fill="#6B6C7E"/>
<path d="M23.75 3.125H27.5V4.375H23.75V3.125Z" fill="#6B6C7E"/>
<path d="M23.75 5.625H27.5V6.875H23.75V5.625Z" fill="#6B6C7E"/>
<path d="M23.75 8.125H27.5V9.375H23.75V8.125Z" fill="#6B6C7E"/>
<path d="M23.75 10.625H27.5V11.875H23.75V10.625Z" fill="#6B6C7E"/>
<path d="M23.75 13.125H27.5V14.375H23.75V13.125Z" fill="#6B6C7E"/>
<path d="M32.5997 8.91577L32.8598 7.69312L36.5277 8.47322L36.2677 9.69587L32.5997 8.91577Z" fill="#6B6C7E"/>
<path d="M32.0796 11.3618L32.3396 10.1391L36.0076 10.9192L35.7476 12.1419L32.0796 11.3618Z" fill="#6B6C7E"/>
<path d="M31.5589 13.8065L31.8189 12.5839L35.4863 13.3638L35.2262 14.5865L31.5589 13.8065Z" fill="#6B6C7E"/>
<path d="M31.0396 16.2524L31.2996 15.0297L34.9676 15.8098L34.7076 17.0325L31.0396 16.2524Z" fill="#6B6C7E"/>
<path d="M30.5157 18.6953L30.7758 17.4726L34.4437 18.2527L34.1837 19.4754L30.5157 18.6953Z" fill="#6B6C7E"/>
<path d="M39.4919 6.54187L30 4.52437V0.625H9.99999V4.52437L0.508118 6.54187L4.69749 26.25H3.74999C2.02687 26.25 0.624993 27.6519 0.624993 29.375C0.624993 31.0981 2.02687 32.5 3.74999 32.5H13.125V31.25H15.8075C16.6881 35.87 20.7525 39.375 25.625 39.375C31.1387 39.375 35.625 34.8887 35.625 29.375C35.625 28.4081 35.48 27.4763 35.2231 26.5913L39.4919 6.54187ZM38.0081 7.50437L34.3837 24.5588C33.3894 22.7581 31.8531 21.3031 30 20.3969V5.8025L38.0081 7.50437ZM28.75 1.875V19.8819C28.3437 19.7475 27.9269 19.6388 27.5 19.5575V15.625H12.5V25H16.6469C16.2637 25.7831 15.9756 26.6194 15.8075 27.5H13.125V26.25H11.25V1.875H28.75ZM17.3637 23.75H13.75V16.875H26.25V19.4069C26.0425 19.3938 25.8362 19.375 25.625 19.375C22.1956 19.375 19.1656 21.1112 17.3637 23.75ZM8.53187 26.25L7.55562 21.6569L9.99999 21.1375V26.25H8.53187ZM7.29874 15.1669C7.84437 14.3269 8.68437 13.7494 9.66437 13.5413C9.77312 13.5181 9.88687 13.5056 9.99999 13.4931V17.3038L6.77624 17.9894C6.56749 17.0094 6.75374 16.0069 7.29874 15.1669ZM7.99312 12.0575C7.57312 11.7844 7.28437 11.365 7.18062 10.8744C7.07624 10.3844 7.16874 9.88375 7.44187 9.46375C7.71499 9.04375 8.13437 8.755 8.62437 8.65063C9.09937 8.55 9.58624 8.65187 9.99999 8.91437V12.0537C9.81124 12.1762 9.61499 12.2744 9.40437 12.3187C8.91374 12.4225 8.41312 12.33 7.99312 12.0575ZM1.99187 7.50437L9.99999 5.8025V7.52812C9.47812 7.35063 8.91687 7.31 8.36437 7.42813C7.54812 7.60188 6.84812 8.0825 6.39374 8.7825C5.93937 9.4825 5.78437 10.3181 5.95812 11.1337C6.13124 11.9506 6.61312 12.6506 7.31312 13.105C7.36437 13.1381 7.41874 13.1625 7.47124 13.1925C6.99749 13.5437 6.58187 13.9762 6.25124 14.4856C5.52374 15.6056 5.27562 16.9419 5.55374 18.2481L5.81249 19.4719L9.99999 18.5812V19.8594L6.07249 20.6944L7.25312 26.25H5.97562L1.99187 7.50437ZM11.875 31.25H3.74999C2.71624 31.25 1.87499 30.4088 1.87499 29.375C1.87499 28.3412 2.71624 27.5 3.74999 27.5H11.875V31.25ZM13.125 30V28.75H15.6569C15.6437 28.9575 15.625 29.1637 15.625 29.375C15.625 29.5863 15.6437 29.7925 15.6569 30H13.125ZM25.625 38.125C20.8 38.125 16.875 34.2 16.875 29.375C16.875 24.55 20.8 20.625 25.625 20.625C30.45 20.625 34.375 24.55 34.375 29.375C34.375 34.2 30.45 38.125 25.625 38.125Z" fill="#6B6C7E"/>
</g>
<defs>
<clipPath id="clip0_796_227">
<rect width="40" height="40" fill="white"/>
</clipPath>
</defs>
</svg>
