<svg width="37" height="35" viewBox="0 0 37 35" fill="none" xmlns="http://www.w3.org/2000/svg">
<path d="M36.0428 5.38769L27.5001 3.57194V0.0625H9.50009V3.57194L0.957397 5.38769L4.72784 23.125H3.87509C2.32427 23.125 1.06258 24.3867 1.06258 25.9375C1.06258 27.4883 2.32427 28.75 3.87509 28.75H12.3126V27.625H14.7268C15.5194 31.783 19.1773 34.9375 23.5626 34.9375C28.525 34.9375 32.5626 30.8999 32.5626 25.9375C32.5626 25.0673 32.4321 24.2286 32.2009 23.4321L36.0428 5.38769ZM34.7074 6.25394L31.4455 21.6029C30.5505 19.9823 29.1679 18.6728 27.5001 17.8572V4.72225L34.7074 6.25394ZM26.3751 1.1875V17.3937C26.0095 17.2728 25.6343 17.1749 25.2501 17.1017V13.5625H11.7501V22H15.4823C15.1375 22.7048 14.8781 23.4574 14.7268 24.25H12.3126V23.125H10.6251V1.1875H26.3751ZM16.1275 20.875H12.8751V14.6875H24.1251V16.9662C23.9383 16.9544 23.7527 16.9375 23.5626 16.9375C20.4762 16.9375 17.7491 18.5001 16.1275 20.875ZM8.17877 23.125L7.30015 18.9912L9.50009 18.5238V23.125H8.17877ZM7.06896 13.1502C7.56002 12.3942 8.31602 11.8744 9.19802 11.6871C9.2959 11.6663 9.39827 11.6551 9.50009 11.6438V15.0734L6.59871 15.6904C6.41084 14.8084 6.57846 13.9062 7.06896 13.1502ZM7.6939 10.3517C7.3159 10.1059 7.05602 9.7285 6.96265 9.28694C6.86871 8.84594 6.95196 8.39538 7.19777 8.01737C7.44359 7.63938 7.82102 7.3795 8.26202 7.28556C8.68952 7.195 9.12771 7.28669 9.50009 7.52294V10.3484C9.33021 10.4586 9.15359 10.5469 8.96402 10.5869C8.52246 10.6802 8.0719 10.597 7.6939 10.3517ZM2.29277 6.25394L9.50009 4.72225V6.27531C9.0304 6.11556 8.52527 6.079 8.02802 6.18531C7.2934 6.34169 6.6634 6.77425 6.25446 7.40425C5.84552 8.03425 5.70602 8.78631 5.8624 9.52037C6.01821 10.2556 6.4519 10.8856 7.0819 11.2945C7.12802 11.3243 7.17696 11.3462 7.22421 11.3733C6.79784 11.6894 6.42377 12.0786 6.12621 12.5371C5.47146 13.5451 5.24815 14.7477 5.49846 15.9233L5.73134 17.0247L9.50009 16.2231V17.3734L5.96534 18.1249L7.0279 23.125H5.87815L2.29277 6.25394ZM11.1876 27.625H3.87509C2.94471 27.625 2.18759 26.8679 2.18759 25.9375C2.18759 25.0071 2.94471 24.25 3.87509 24.25H11.1876V27.625ZM12.3126 26.5V25.375H14.5913C14.5795 25.5618 14.5626 25.7474 14.5626 25.9375C14.5626 26.1276 14.5795 26.3132 14.5913 26.5H12.3126ZM23.5626 33.8125C19.2201 33.8125 15.6876 30.28 15.6876 25.9375C15.6876 21.595 19.2201 18.0625 23.5626 18.0625C27.9051 18.0625 31.4376 21.595 31.4376 25.9375C31.4376 30.28 27.9051 33.8125 23.5626 33.8125Z" fill="#6B6C7E"/>
</svg>
